<svg width="95" height="101" viewBox="0 0 95 101" fill="none" xmlns="http://www.w3.org/2000/svg">
<path d="M32.8938 54.8425H37.0933H37.8891C41.9826 54.8059 46.0402 55.6459 49.8155 57.3099C50.5533 57.654 51.4165 57.303 51.7435 56.5256C52.0704 55.7489 51.7363 54.8403 50.9984 54.4961C49.0459 53.5966 47.0062 52.9237 44.9153 52.4897C50.86 48.108 52.4444 38.5293 53.0728 29.8959C53.4164 25.4213 51.9501 21.0016 49.0342 17.7262C45.9452 14.2549 41.6261 12.2887 37.1078 12.2986C32.3292 12.2857 27.7711 14.4166 24.5754 18.1565C21.8074 21.3258 20.476 25.6004 20.9239 29.8797C21.6545 41.1498 24.247 48.5221 28.8553 52.1727C23.852 53.1607 19.3315 55.9516 16.0707 60.066C12.8092 64.1805 11.0108 69.3617 10.9849 74.7205V76.6271C10.9849 77.0345 11.1385 77.4259 11.4125 77.7143C11.6865 78.0027 12.0576 78.1644 12.4453 78.1644H35.8149C36.6217 78.1644 37.2754 77.4762 37.2754 76.6271C37.2754 75.7779 36.6217 75.089 35.8149 75.089H13.9056V74.7198V74.7205C13.9324 69.4379 15.9451 64.3818 19.5032 60.6565C23.0612 56.9311 27.8752 54.8406 32.8937 54.8406L32.8938 54.8425ZM23.8382 29.6042C23.4758 26.1726 24.5405 22.7447 26.759 20.2017C29.4118 17.1355 33.1676 15.3829 37.1075 15.3745C40.8142 15.3631 44.3583 16.9721 46.8937 19.8179C49.2544 22.4675 50.44 26.0451 50.1582 29.6652C49.0775 44.5638 45.426 51.2589 38.0063 51.7355H36.9909C28.9645 51.6973 24.7875 44.6706 23.838 29.6027L23.8382 29.6042Z" fill="#2E86DE"/>
<path d="M87.0901 55.5867C87.0184 54.897 86.7632 54.2416 86.3537 53.6976C85.9442 53.1537 85.397 52.7424 84.7744 52.512C84.0576 52.2595 83.2871 52.2206 82.5501 52.3991C81.8129 52.5784 81.1374 52.9683 80.5975 53.5267L75.6828 58.4775C74.9391 59.2214 73.9491 59.6303 72.9235 59.6173C71.8972 59.6044 70.9174 59.171 70.1904 58.4081C69.4446 57.6238 69.0315 56.5557 69.0438 55.4456C69.0561 54.3355 69.4932 53.278 70.2564 52.512L74.8863 47.8458V47.845C75.4553 47.2865 75.8597 46.5694 76.054 45.7767C76.2482 44.984 76.2228 44.1493 75.9822 43.3712C75.7655 42.6975 75.3669 42.1055 74.8349 41.6668C74.3029 41.2288 73.6607 40.9633 72.9881 40.9038C68.3103 40.4087 63.6651 42.1162 60.2976 45.5693C56.9303 49.0216 55.1856 53.8656 55.5328 58.8001C55.6277 59.9377 55.5915 62.0441 54.3057 63.4128L40.9999 77.4654C39.4373 79.0782 38.5604 81.2869 38.5689 83.5902C38.5769 85.8935 39.4698 88.096 41.0434 89.696C42.6082 91.196 44.6528 92.0199 46.7692 92.0025H47.1055C49.1769 91.9399 51.1389 91.0068 52.5529 89.4115L65.845 75.3665C67.1373 74.0062 69.1536 73.9597 70.227 74.052C74.9136 74.3991 79.5051 72.5421 82.7652 68.9799C86.0245 65.4186 87.6163 60.519 87.1118 55.6018L87.0901 55.5867ZM80.4511 67.0414C77.8332 69.8466 74.1707 71.2902 70.446 70.9849C67.6925 70.7469 65.334 71.5228 63.7417 73.1914L50.4207 87.2822C49.5205 88.2984 48.2709 88.8905 46.9519 88.9279C45.5233 88.9988 44.126 88.4709 43.0663 87.4592C42.0458 86.443 41.4675 85.0293 41.4675 83.5498C41.4675 82.0713 42.0458 80.6575 43.0663 79.6412L56.3728 65.5727C57.9427 63.9125 58.6807 61.4139 58.4473 58.5459C58.145 54.6016 59.5105 50.7174 62.1792 47.9297C64.5985 45.3526 67.8957 43.8998 71.3368 43.8938C71.7898 43.8938 72.2421 43.9167 72.6951 43.9632C72.9386 43.9609 73.1546 44.1265 73.2285 44.3706C73.3358 44.8177 73.1945 45.2907 72.8632 45.5928L68.2333 50.259C66.9047 51.5988 66.1444 53.4444 66.1219 55.3807C66.1002 57.3163 66.8192 59.1801 68.1166 60.5526C69.3871 61.8801 71.0983 62.6346 72.8887 62.6561C74.6789 62.6775 76.4061 61.9649 77.7056 60.6678L82.6204 55.7171C82.9205 55.3859 83.3698 55.2555 83.7888 55.3791C84.0222 55.4607 84.1802 55.6896 84.1831 55.9482C84.6592 60.0566 83.2777 64.1634 80.4511 67.0414Z" fill="#FFCD73"/>
</svg>
