<svg width="77" height="71" viewBox="0 0 77 71" fill="none" xmlns="http://www.w3.org/2000/svg">
<path d="M41.6702 4.45111e-06C32.2767 -0.00469956 23.2652 3.71923 16.6188 10.3566C9.97083 16.9921 6.22939 25.9971 6.22015 35.3907V38.7477L3.44956 35.9771C2.66089 35.1932 1.38612 35.1932 0.597409 35.9771C0.214826 36.3566 0 36.8725 0 37.4118C0 37.9512 0.214818 38.4686 0.597409 38.8481L6.80667 45.0573C7.59534 45.8413 8.86854 45.8413 9.65726 45.0573L15.8665 38.8481C16.2491 38.4686 16.4639 37.9512 16.4639 37.4118C16.4639 36.8725 16.2491 36.3566 15.8665 35.9771C15.0779 35.1932 13.8031 35.1932 13.0144 35.9771L10.2641 38.7477V35.3907C10.2641 27.0773 13.5663 19.1043 19.4446 13.2258C25.3231 7.34724 33.2961 4.04372 41.6095 4.04372C49.9229 4.04372 57.8959 7.34744 63.7745 13.2258C69.653 19.1043 72.9549 27.0773 72.9549 35.3907C72.9549 43.7041 69.6527 51.6755 63.7745 57.5556C57.8959 63.4342 49.9229 66.7361 41.6095 66.7361C40.4931 66.7361 39.5868 67.6408 39.5868 68.7588C39.5868 69.8751 40.4931 70.7799 41.6095 70.7799C54.2536 70.7799 65.9364 64.0344 72.2585 53.0854C78.5805 42.1364 78.5805 28.6453 72.2585 17.6947C65.9364 6.74566 54.2536 0.000126949 41.6095 0.000126949L41.6702 4.45111e-06Z" fill="#2E86DE"/>
<path d="M41.6704 15.3095C40.554 15.3095 39.6477 16.2158 39.6477 17.3322V37.4131C39.6477 37.9493 39.8609 38.4636 40.2404 38.8431C40.6199 39.2225 41.1342 39.4358 41.6704 39.4358H58.1122C59.2285 39.4358 60.1333 38.5311 60.1333 37.4131C60.1333 36.2967 59.2286 35.392 58.1122 35.392H43.6931V17.3322C43.6931 16.7959 43.4798 16.2816 43.1004 15.9022C42.7209 15.5227 42.2066 15.3095 41.6704 15.3095Z" fill="#FFCD73"/>
</svg>
