<svg width="88" height="85" viewBox="0 0 88 85" fill="none" xmlns="http://www.w3.org/2000/svg">
<path d="M11.5277 63.1547V8.91235H6.11572V63.1547C6.11572 66.5802 7.54108 69.8652 10.0783 72.2871C12.6162 74.7096 16.0577 76.0702 19.6455 76.0702H81.8832V70.9042H19.6455C17.4925 70.9042 15.4279 70.0877 13.9053 68.6342C12.3832 67.1814 11.5279 65.2101 11.5279 63.1549L11.5277 63.1547Z" fill="#2E86DE"/>
<path d="M52.9032 50.7828C53.4779 51.3352 54.2836 51.6108 55.0953 51.532C55.903 51.4474 56.6281 51.0205 57.0705 50.3701L78.7181 19.3737L74.2258 16.6616L54.3915 45.074L43.2156 34.3804C42.647 33.8356 41.8534 33.5607 41.0504 33.6312C40.2521 33.7036 39.529 34.1106 39.0752 34.7418L20.1328 60.5718L24.5706 63.5166L41.6729 40.2689L52.9032 50.7828Z" fill="#FFCD73"/>
</svg>
