<svg width="23" height="23" viewBox="0 0 23 23" fill="none" xmlns="http://www.w3.org/2000/svg">
<path fill-rule="evenodd" clip-rule="evenodd" d="M3.30938 10.8357H16.1481C16.516 10.8357 16.8141 11.1304 16.8141 11.5C16.8141 11.8667 16.5222 12.1641 16.1481 12.1641H3.30938L5.34256 13.9952C5.61509 14.2406 5.63713 14.6606 5.39179 14.9331C5.14666 15.2059 4.72707 15.2279 4.45454 14.9826L1.07727 11.9411C0.806393 11.6972 0.806805 11.3025 1.07727 11.0588L4.45454 8.0173C4.72707 7.77197 5.14668 7.794 5.39179 8.06674C5.63713 8.33948 5.61509 8.7593 5.34256 9.00483L3.30938 10.8357ZM21.4627 22.1271H12.1651C11.7955 22.1271 11.5003 21.8297 11.5003 21.4628C11.5003 21.0935 11.7997 20.7987 12.169 20.7987H20.799V2.20083H12.169C11.7991 2.20083 11.5003 1.90358 11.5003 1.5367C11.5003 1.16735 11.7978 0.872559 12.1651 0.872559H21.4627C21.832 0.872559 22.1274 1.16775 22.1274 1.53195V21.4677C22.1274 21.8265 21.8297 22.127 21.4627 22.127V22.1271Z" fill="#DF1010"/>
</svg>
