<svg width="48" height="48" viewBox="0 0 48 48" fill="none" xmlns="http://www.w3.org/2000/svg">
<path d="M30.1164 22C30.1164 20.9384 30.9382 20.0478 32 19.9451C31.726 18.6438 31.2124 17.4452 30.5274 16.3836C29.7056 17.0344 28.5067 17.0001 27.7534 16.2466C27.0001 15.4933 26.9659 14.2944 27.6164 13.4726C26.5548 12.7536 25.3563 12.2397 24.0549 12C23.9521 13.0616 23.0618 13.8836 22 13.8836C20.9384 13.8836 20.0478 13.0618 19.9451 12C18.6438 12.274 17.4452 12.7876 16.3836 13.4726C17.0344 14.2944 17.0001 15.4933 16.2466 16.2466C15.4933 16.9999 14.2944 17.0341 13.4726 16.3836C12.7536 17.4452 12.2397 18.6438 12 19.9451C13.0616 20.0479 13.8836 20.9382 13.8836 22C13.8836 23.0616 13.0618 23.9522 12 24.0549C12.274 25.3563 12.7876 26.5548 13.4726 27.6164C14.2944 26.9656 15.4933 26.9999 16.2466 27.7534C16.9999 28.5067 17.0341 29.7056 16.3836 30.5274C17.4452 31.2464 18.6438 31.7603 19.9451 32C20.0479 30.9384 20.9382 30.1164 22 30.1164C23.0616 30.1164 23.9522 30.9382 24.0549 32C25.3563 31.726 26.5548 31.2124 27.6164 30.5274C26.9656 29.7056 26.9999 28.5067 27.7534 27.7534C28.5067 27.0001 29.7056 26.9659 30.5274 27.6164C31.2464 26.5548 31.7603 25.3563 32 24.0549C30.9382 23.9519 30.1164 23.0616 30.1164 22ZM21.9655 27.7532C18.7806 27.7532 16.2121 25.1848 16.2121 21.9997C16.2121 18.8148 18.7805 16.2463 21.9655 16.2463C25.1503 16.2466 27.7187 18.815 27.7187 22C27.7187 25.1848 25.1503 27.7532 21.9655 27.7532Z" fill="#2E86DE"/>
</svg>
