<svg width="74" height="90" viewBox="0 0 74 90" fill="none" xmlns="http://www.w3.org/2000/svg">
<path d="M73.5906 11.778L57.5208 0.962718C57.2051 0.734258 56.8129 0.718982 56.4857 0.922223C56.1585 1.12547 55.9436 1.51819 55.9175 1.95905V6.70467H21.2805C20.4208 6.70467 19.7236 7.53978 19.7236 8.56974V16.6658C19.7236 17.695 20.4207 18.5301 21.2805 18.5301H55.9175V23.2765C55.9436 23.7166 56.1592 24.1093 56.4864 24.3125C56.8135 24.5158 57.2051 24.5005 57.5208 24.272L73.5906 13.4568C73.8438 13.2864 74.0001 12.9655 74.0001 12.6171C74.0001 12.2695 73.8438 11.9483 73.5906 11.778Z" fill="#2E86DE"/>
<path d="M0.409458 78.4928L16.4792 89.3088C16.7949 89.5365 17.1872 89.5518 17.5143 89.3485C17.8415 89.1453 18.0571 88.7526 18.0826 88.3125V83.5668L52.7196 83.5661C53.5793 83.5661 54.2758 82.7317 54.2758 81.7018V73.6058C54.2758 72.5758 53.5793 71.7407 52.7196 71.7407H18.0826V66.9951C18.0565 66.5542 17.8415 66.1615 17.5143 65.9582C17.1872 65.755 16.7949 65.7703 16.4792 65.9987L0.409458 76.8147C0.156253 76.9851 0 77.3053 0 77.6537C0 78.0013 0.156258 78.3224 0.409458 78.4928Z" fill="#2E86DE"/>
<path d="M54.2754 45.1354C54.2754 39.6465 52.4557 34.3827 49.2158 30.5023C45.9765 26.6208 41.5828 24.441 37.0014 24.441C32.4197 24.441 28.0258 26.621 24.7866 30.5023C21.5466 34.3829 19.7271 39.6465 19.7271 45.1354C19.7271 50.6237 21.5467 55.8873 24.7866 59.7679C28.0259 63.6494 32.4197 65.8292 37.0014 65.8292C41.5808 65.823 45.9719 63.6408 49.2099 59.7611C52.4487 55.882 54.2701 50.6214 54.2752 45.1356L54.2754 45.1354ZM32.9485 50.2347H33.1666C33.8044 50.256 34.3689 50.7366 34.5953 51.4518C34.7955 52.0187 35.1304 52.5016 35.5583 52.8416C35.9863 53.1816 36.4882 53.3635 37.0016 53.3643C38.2064 53.3643 39.6134 52.7018 39.6134 50.8352C39.6134 49.3842 37.9245 48.1349 36.1374 46.8125C33.7757 45.0651 31.1001 43.0846 31.1001 39.4355L31.0994 39.4347C31.0918 37.9639 31.5127 36.5359 32.2902 35.3973C33.067 34.2581 34.1512 33.4796 35.356 33.1953V32.4152C35.356 31.9209 35.5199 31.4464 35.812 31.0964C36.1041 30.7472 36.4996 30.5509 36.9129 30.5509H37.0902C37.5028 30.5509 37.8989 30.7472 38.1903 31.0964C38.4825 31.4464 38.6464 31.9208 38.6464 32.4152V33.2495C40.4341 33.8761 41.8723 35.4721 42.5298 37.5603C42.6969 38.1311 42.6217 38.7645 42.3283 39.2566C42.0349 39.7494 41.5591 40.0397 41.054 40.0351H40.8359C40.1981 40.0137 39.6336 39.5331 39.4072 38.818C39.207 38.2518 38.8721 37.7682 38.4448 37.4281C38.0168 37.0881 37.5149 36.9063 37.0015 36.9055C35.7967 36.9055 34.3898 37.568 34.3898 39.4346C34.3898 40.8856 36.0787 42.1349 37.8657 43.4573C40.2275 45.2047 42.903 47.1852 42.903 50.8343V50.8351C42.9107 52.3059 42.4898 53.7339 41.7129 54.8732C40.9355 56.0117 39.8513 56.7902 38.6465 57.0745V57.8546C38.6465 58.3489 38.4826 58.8234 38.1904 59.1734C37.899 59.5233 37.5029 59.7197 37.0903 59.7197H36.913C36.4997 59.7197 36.1042 59.5233 35.8121 59.1734C35.52 58.8234 35.3561 58.349 35.3561 57.8546V57.021C33.5684 56.3937 32.1301 54.7976 31.4726 52.7094C31.3055 52.1387 31.3808 51.506 31.6742 51.0132C31.9682 50.5212 32.4434 50.2308 32.9485 50.2347Z" fill="#FFCD73"/>
</svg>
